# xmcd CD database file
#
# Track frame offsets:
#	150
#	11625
#	23525
#	33020
#	43025
#	51615
#	63180
#	76180
#	87185
#	100175
#	111315
#	126060
#	138580
#	153055
#	167385
#	180015
#	189710
#	207930
#	223465
#	242165
#
# Disc length: 3368 seconds
#
# Revision: 0
# Processed by: cddbd v1.5.2PL0 Copyright (c) Steve Scherf et al.
# Submitted via: CDex 1.51
#
DISCID=030d2614
DTITLE=MARTY ROBBINS - MARTY'S COUNTRY
DYEAR=1900
DGENRE=Country
TTITLE0=Kaw-Liga
TTITLE1=Yours
TTITLE2=Half As Much
TTITLE3=I Can't Help It
TTITLE4=Amor
TTITLE5=Are You Sincere
TTITLE6=Devil Woman
TTITLE7=Red River Valley
TTITLE8=The Hanging Tree
TTITLE9=Singing The Blues
TTITLE10=The Great Speckled Bird
TTITLE11=Streets Of Laredo
TTITLE12=Cool Water
TTITLE13=Have I Told You Lately That I Love You
TTITLE14=I'm So Lonesome I Could Cry
TTITLE15=Long Tall Sally
TTITLE16=Hello Heartache
TTITLE17=The Strawberry Roan
TTITLE18=Little Joe The Wrangler
TTITLE19=The Hawaiian Wedding Song
EXTD=
EXTT0=
EXTT1=
EXTT2=
EXTT3=
EXTT4=
EXTT5=
EXTT6=
EXTT7=
EXTT8=
EXTT9=
EXTT10=
EXTT11=
EXTT12=
EXTT13=
EXTT14=
EXTT15=
EXTT16=
EXTT17=
EXTT18=
EXTT19=
PLAYORDER=
